<svg width="29" height="24" viewBox="0 0 29 24" fill="none" xmlns="http://www.w3.org/2000/svg">
<g filter="url(#filter0_d_3_82)">
<path d="M9.15585 19.4954C7.88928 19.4954 5.72092 19.6659 5.1535 17.9407C4.58608 16.2154 5.72767 15.2492 6.3694 14.9817C6.43695 13.7112 7.33199 11.1401 10.3717 11.0197C13.4115 10.8994 14.8132 13.0091 15.134 14.079C15.9278 13.6443 17.8698 13.2164 19.2884 14.9817C21.0616 17.1884 18.2751 19.4954 17.0086 19.4954C15.9953 19.4954 13.0267 19.4954 11.1691 19.4954M13.5128 10.117C14.1714 9.41486 15.9852 8.31153 17.9711 9.51517C19.9571 10.7188 19.6768 12.7249 19.2884 13.5775M10.3717 6.95743L11.841 8.41183M15.894 4.5V6.65652M19.9977 8.41183L21.5682 6.85713M21.7202 12.4741H24" stroke="#FABC2A" stroke-linecap="round"/>
</g>
<defs>
<filter id="filter0_d_3_82" x="0.5" y="0" width="28" height="24.0003" filterUnits="userSpaceOnUse" color-interpolation-filters="sRGB">
<feFlood flood-opacity="0" result="BackgroundImageFix"/>
<feColorMatrix in="SourceAlpha" type="matrix" values="0 0 0 0 0 0 0 0 0 0 0 0 0 0 0 0 0 0 127 0" result="hardAlpha"/>
<feOffset/>
<feGaussianBlur stdDeviation="2"/>
<feComposite in2="hardAlpha" operator="out"/>
<feColorMatrix type="matrix" values="0 0 0 0 0.980392 0 0 0 0 0.737255 0 0 0 0 0.164706 0 0 0 0.25 0"/>
<feBlend mode="normal" in2="BackgroundImageFix" result="effect1_dropShadow_3_82"/>
<feBlend mode="normal" in="SourceGraphic" in2="effect1_dropShadow_3_82" result="shape"/>
</filter>
</defs>
</svg>
